<?xml version="1.0" encoding="UTF-8" standalone="no"?><!DOCTYPE svg PUBLIC "-//W3C//DTD SVG 1.1//EN" "http://www.w3.org/Graphics/SVG/1.1/DTD/svg11.dtd"><svg width="100%" height="100%" viewBox="0 0 119 60" version="1.1" xmlns="http://www.w3.org/2000/svg" xmlns:xlink="http://www.w3.org/1999/xlink" xml:space="preserve" xmlns:serif="http://www.serif.com/" style="fill-rule:evenodd;clip-rule:evenodd;stroke-linecap:round;stroke-linejoin:round;stroke-miterlimit:1.5;"><g><g><circle cx="29.607" cy="29.607" r="29.464" style="fill:#fff;stroke:#fff;stroke-width:0.29px;"/><g><ellipse cx="29.607" cy="29.607" rx="8.019" ry="8.019" style="stroke:#000;stroke-width:0.75px;"/><g><path d="M29.629,13.681l0,3.809" style="fill:none;stroke:#000;stroke-width:2.92px;"/><path d="M13.681,29.607l3.809,0" style="fill:none;stroke:#000;stroke-width:2.92px;"/><path d="M29.629,41.725l0,3.809" style="fill:none;stroke:#000;stroke-width:2.92px;"/><path d="M41.725,29.607l3.809,0" style="fill:none;stroke:#000;stroke-width:2.92px;"/></g><g><path d="M18.361,18.331l2.693,2.693" style="fill:none;stroke:#000;stroke-width:2.92px;"/><path d="M18.346,40.869l2.693,-2.693" style="fill:none;stroke:#000;stroke-width:2.92px;"/><path d="M38.191,38.161l2.693,2.693" style="fill:none;stroke:#000;stroke-width:2.92px;"/><path d="M38.176,21.039l2.693,-2.693" style="fill:none;stroke:#000;stroke-width:2.92px;"/></g></g></g><g><g><circle cx="89.067" cy="29.607" r="29.464" style="stroke:#000;stroke-width:0.29px;"/></g><g><path d="M95.198,16.619c-0.202,-0.544 -0.03,-1.157 0.426,-1.517c0.456,-0.359 1.092,-0.384 1.575,-0.061c0.486,0.314 0.958,0.661 1.415,1.036c7.214,5.909 8.273,16.564 2.363,23.777c-5.909,7.213 -16.563,8.272 -23.777,2.363c-0.457,-0.375 -0.89,-0.769 -1.298,-1.18c-0.413,-0.412 -0.514,-1.042 -0.25,-1.562c0.264,-0.52 0.833,-0.81 1.408,-0.72c5.628,0.91 11.575,-1.118 15.445,-5.842c3.869,-4.724 4.688,-10.954 2.693,-16.294Z" style="fill:#fff;"/><path d="M88.277,19.025c0.008,-0.032 0.037,-0.053 0.069,-0.053c0.033,-0 0.061,0.021 0.07,0.053l0.328,1.172l1.217,-0.05c0.032,-0.001 0.061,0.019 0.071,0.05c0.01,0.031 -0.001,0.064 -0.028,0.082l-1.014,0.675l0.423,1.141c0.012,0.031 0.001,0.065 -0.025,0.084c-0.026,0.019 -0.062,0.018 -0.087,-0.002l-0.955,-0.755l-0.955,0.755c-0.025,0.02 -0.061,0.021 -0.087,0.002c-0.026,-0.019 -0.036,-0.053 -0.025,-0.084l0.423,-1.141l-1.013,-0.675c-0.027,-0.018 -0.039,-0.051 -0.029,-0.082c0.01,-0.031 0.039,-0.051 0.072,-0.05l1.216,0.05l0.329,-1.172Z" style="fill:#fff;"/><path d="M86.883,27.803c0.004,-0.017 0.02,-0.028 0.037,-0.028c0.018,-0 0.033,0.011 0.037,0.028l0.177,0.63l0.654,-0.027c0.017,-0 0.033,0.011 0.038,0.027c0.005,0.017 -0.001,0.035 -0.015,0.044l-0.545,0.363l0.228,0.613c0.006,0.017 0,0.035 -0.014,0.045c-0.014,0.01 -0.033,0.01 -0.047,-0.001l-0.513,-0.406l-0.513,0.406c-0.014,0.011 -0.033,0.011 -0.047,0.001c-0.014,-0.01 -0.019,-0.028 -0.013,-0.045l0.227,-0.613l-0.544,-0.363c-0.015,-0.009 -0.021,-0.027 -0.016,-0.044c0.005,-0.016 0.021,-0.027 0.039,-0.027l0.653,0.027l0.177,-0.63Z" style="fill:#fff;"/><path d="M82.404,18.655c0.004,-0.013 0.016,-0.022 0.029,-0.022c0.013,0 0.025,0.009 0.029,0.022l0.135,0.483l0.501,-0.02c0.014,-0.001 0.026,0.008 0.03,0.02c0.004,0.013 -0.001,0.027 -0.012,0.034l-0.418,0.278l0.175,0.471c0.004,0.012 0,0.026 -0.011,0.034c-0.01,0.008 -0.025,0.007 -0.036,-0.001l-0.393,-0.311l-0.393,0.311c-0.011,0.008 -0.026,0.009 -0.036,0.001c-0.011,-0.008 -0.015,-0.022 -0.011,-0.034l0.175,-0.471l-0.418,-0.278c-0.011,-0.007 -0.016,-0.021 -0.012,-0.034c0.004,-0.012 0.016,-0.021 0.03,-0.02l0.501,0.02l0.135,-0.483Z" style="fill:#fff;"/><path d="M79.858,31.232c0.004,-0.014 0.016,-0.023 0.03,-0.023c0.014,-0 0.027,0.009 0.03,0.023l0.142,0.506l0.527,-0.021c0.013,-0.001 0.026,0.008 0.03,0.021c0.005,0.014 -0,0.028 -0.012,0.036l-0.438,0.292l0.183,0.494c0.005,0.013 0,0.027 -0.011,0.036c-0.011,0.008 -0.027,0.008 -0.038,-0.001l-0.413,-0.327l-0.413,0.327c-0.011,0.009 -0.026,0.009 -0.037,0.001c-0.012,-0.009 -0.016,-0.023 -0.011,-0.036l0.183,-0.494l-0.439,-0.292c-0.011,-0.008 -0.016,-0.022 -0.012,-0.036c0.004,-0.013 0.017,-0.022 0.031,-0.021l0.526,0.021l0.142,-0.506Z" style="fill:#fff;"/><path d="M78.68,23.717c0.006,-0.02 0.025,-0.034 0.046,-0.034c0.021,-0 0.04,0.014 0.045,0.034l0.215,0.767l0.797,-0.032c0.021,-0.001 0.04,0.012 0.046,0.032c0.007,0.021 -0.001,0.043 -0.018,0.054l-0.664,0.442l0.277,0.747c0.008,0.02 0.001,0.042 -0.016,0.055c-0.017,0.012 -0.041,0.012 -0.057,-0.001l-0.625,-0.495l-0.625,0.495c-0.017,0.013 -0.04,0.013 -0.057,0.001c-0.017,-0.013 -0.024,-0.035 -0.017,-0.055l0.277,-0.747l-0.663,-0.442c-0.018,-0.011 -0.025,-0.033 -0.019,-0.054c0.007,-0.02 0.026,-0.033 0.047,-0.032l0.796,0.032l0.215,-0.767Z" style="fill:#fff;"/></g></g></g></svg>